<svg id="Layer_1" data-name="Layer 1" xmlns="http://www.w3.org/2000/svg" viewBox="0 0 172.73 32.56"><defs><style>.cls-1{fill:#16223a;}.cls-2{fill:#2c72b7;}.cls-3{fill:#fdd733;}.cls-4{fill:#388d3c;}.cls-5{fill:#e42320;}</style></defs><title>footerLogo_black</title><path class="cls-1" d="M41.41,21.19l1.91-1.9a.86.86,0,0,0,0-1.21L43,17.75a.85.85,0,0,0-1.2,0l-1.91,1.91L38,17.75a.85.85,0,0,0-1.2,0l-.33.33a.86.86,0,0,0,0,1.21l1.91,1.9L36.44,23.1a.86.86,0,0,0,0,1.21l.33.32a.83.83,0,0,0,1.2,0l1.91-1.9,1.91,1.9a.83.83,0,0,0,1.2,0l.33-.32a.86.86,0,0,0,0-1.21Z" transform="translate(-24.94 0)"/><circle class="cls-2" cx="37.08" cy="18.36" r="1.58"/><circle class="cls-3" cx="37.08" cy="24.02" r="1.58"/><circle class="cls-4" cx="34.25" cy="21.2" r="1.58"/><circle class="cls-5" cx="39.91" cy="21.19" r="1.58"/><path class="cls-1" d="M54.73,26a1.36,1.36,0,0,1,0,2.71H47.17a1.36,1.36,0,0,1,0-2.71h7.56m0-1.28H47.17a2.64,2.64,0,0,0,0,5.28h7.56a2.64,2.64,0,0,0,0-5.28Z" transform="translate(-24.94 0)"/><path class="cls-1" d="M73.27,18.75,68.76,2.62l-.05-.14A4.15,4.15,0,0,0,65.33,0c-.82,0-2.36.21-3.54,2.37a.54.54,0,0,0,0,.11l-3.87,9.36H43.12L39.25,2.48a.6.6,0,0,0-.06-.11C38,.21,36.47,0,35.65,0a4.15,4.15,0,0,0-3.37,2.48l-.06.17L25,31.05a1.24,1.24,0,0,0,.21,1,1.21,1.21,0,0,0,.95.46h10.5a1.21,1.21,0,1,0,0-2.41H27.69L34.53,3.34a1.74,1.74,0,0,1,1.25-.93c.56,0,1,.55,1.27,1.06l4.15,10a1.21,1.21,0,0,0,1.11.74H58.67a1.19,1.19,0,0,0,1.11-.74l4.15-10c.29-.51.73-1.08,1.27-1.06a1.75,1.75,0,0,1,1.26.94L71,19.4a1.22,1.22,0,0,0,1.16.88,1.24,1.24,0,0,0,.33,0A1.21,1.21,0,0,0,73.27,18.75Z" transform="translate(-24.94 0)"/><path class="cls-1" d="M81,28.55V8.08H97.24a4.27,4.27,0,0,1,2.31.64,4.77,4.77,0,0,1,1.66,1.65,4.4,4.4,0,0,1,.62,2.3V28.55H98V12.77a.92.92,0,0,0-.89-.88H85.7a.84.84,0,0,0-.62.27.82.82,0,0,0-.27.61V28.55Z" transform="translate(-24.94 0)"/><path class="cls-1" d="M107.37,27.92a5.16,5.16,0,0,1-1.66-1.66,4.29,4.29,0,0,1-.63-2.29V12.67a4.32,4.32,0,0,1,.63-2.3,5.13,5.13,0,0,1,1.66-1.65,4.24,4.24,0,0,1,2.3-.64h11.65a4.47,4.47,0,0,1,2.31.62,4.66,4.66,0,0,1,1.66,1.67,4.54,4.54,0,0,1,.62,2.3v7.55h-17v3.64a.91.91,0,0,0,.88.88h16.14v3.81H109.67A4.32,4.32,0,0,1,107.37,27.92Zm1.52-11.26h13.17V12.77a.84.84,0,0,0-.25-.61.77.77,0,0,0-.6-.27H109.77a.93.93,0,0,0-.88.88Z" transform="translate(-24.94 0)"/><path class="cls-1" d="M128.7,28.55v-.67l8-9.74-8-9.39V8.08h4.44l6,7.1,6.07-7.1h4.42v.67l-8,9.39,8,9.74v.67h-4.45l-6.07-7.44-6,7.44Z" transform="translate(-24.94 0)"/><path class="cls-1" d="M155.4,27.92a4.88,4.88,0,0,1-1.66-1.66,4.37,4.37,0,0,1-.62-2.29V8.08h3.82V23.86a.89.89,0,0,0,.88.88h11.44a.89.89,0,0,0,.62-.26.87.87,0,0,0,.26-.62V8.08H174V24a4.36,4.36,0,0,1-.61,2.29,5,5,0,0,1-1.66,1.66,4.42,4.42,0,0,1-2.32.63H157.71A4.41,4.41,0,0,1,155.4,27.92Z" transform="translate(-24.94 0)"/><path class="cls-1" d="M179.14,27.92a5.16,5.16,0,0,1-1.66-1.66,4.29,4.29,0,0,1-.63-2.29v-.53h3.81v.42a.91.91,0,0,0,.88.88H193a.79.79,0,0,0,.6-.26.86.86,0,0,0,.25-.62V21.11a.84.84,0,0,0-.25-.62.77.77,0,0,0-.6-.27H181.44a4.37,4.37,0,0,1-2.3-.61A5.07,5.07,0,0,1,177.48,18a4.42,4.42,0,0,1-.63-2.32v-3a4.32,4.32,0,0,1,.63-2.3,5.13,5.13,0,0,1,1.66-1.65,4.22,4.22,0,0,1,2.3-.64h11.65a4.3,4.3,0,0,1,2.31.64,4.85,4.85,0,0,1,1.66,1.65,4.4,4.4,0,0,1,.62,2.3v.53h-3.85v-.43a.84.84,0,0,0-.25-.61.77.77,0,0,0-.6-.27H181.54a.93.93,0,0,0-.88.88v2.76a.86.86,0,0,0,.27.62.85.85,0,0,0,.61.26h11.55a4.47,4.47,0,0,1,2.31.62,4.63,4.63,0,0,1,1.66,1.66,4.44,4.44,0,0,1,.62,2.31v3a4.37,4.37,0,0,1-.62,2.29,4.88,4.88,0,0,1-1.66,1.66,4.38,4.38,0,0,1-2.31.63H181.44A4.3,4.3,0,0,1,179.14,27.92Z" transform="translate(-24.94 0)"/></svg>