<svg id="Layer_1" data-name="Layer 1" xmlns="http://www.w3.org/2000/svg" viewBox="0 0 176.51 33.27"><defs><style>.cls-1{fill:#fff;}.cls-2{fill:#2c72b7;}.cls-3{fill:#fdd733;}.cls-4{fill:#388d3c;}.cls-5{fill:#e42320;}</style></defs><title>footerLogo_white</title><path class="cls-1" d="M66.17,21.66l2-1.95a.87.87,0,0,0,0-1.23l-.34-.34a.87.87,0,0,0-1.23,0l-2,1.95-1.95-1.95a.87.87,0,0,0-1.23,0l-.34.34a.87.87,0,0,0,0,1.23l2,1.95-2,1.95a.87.87,0,0,0,0,1.23l.34.33a.87.87,0,0,0,1.23,0l1.95-2,2,2a.87.87,0,0,0,1.23,0l.34-.33a.87.87,0,0,0,0-1.23Z" transform="translate(-49.34 0)"/><circle class="cls-2" cx="37.89" cy="18.77" r="1.61"/><circle class="cls-3" cx="37.89" cy="24.55" r="1.61"/><circle class="cls-4" cx="35" cy="21.66" r="1.61"/><circle class="cls-5" cx="40.78" cy="21.65" r="1.61"/><path class="cls-1" d="M79.77,26.58a1.39,1.39,0,1,1,0,2.77H72.05a1.39,1.39,0,0,1,0-2.77h7.72m0-1.31H72.05a2.7,2.7,0,1,0,0,5.39h7.72a2.7,2.7,0,1,0,0-5.39Z" transform="translate(-49.34 0)"/><path class="cls-1" d="M98.72,19.16,94.11,2.68c0-.05,0-.1,0-.14A4.23,4.23,0,0,0,90.61,0C89.77,0,88.19.21,87,2.42l-.06.12L83,12.1H67.91L64,2.54l-.06-.12C62.7.21,61.12,0,60.28,0a4.23,4.23,0,0,0-3.45,2.54,1,1,0,0,0,0,.16l-7.41,29a1.24,1.24,0,0,0,1.19,1.54H61.29a1.23,1.23,0,1,0,0-2.46H52.15l7-27.4a1.82,1.82,0,0,1,1.28-1c.57,0,1,.56,1.3,1.08L66,13.8a1.23,1.23,0,0,0,1.14.76H83.8a1.23,1.23,0,0,0,1.14-.76L89.18,3.54c.29-.52.74-1.1,1.3-1.08a1.81,1.81,0,0,1,1.28,1l4.59,16.4a1.23,1.23,0,0,0,1.19.9,1.29,1.29,0,0,0,.33,0A1.24,1.24,0,0,0,98.72,19.16Z" transform="translate(-49.34 0)"/><path class="cls-1" d="M106.62,29.18V8.26h16.59a4.4,4.4,0,0,1,2.37.65,5,5,0,0,1,1.69,1.69A4.47,4.47,0,0,1,127.9,13V29.18H124V13.05a.86.86,0,0,0-.27-.63.89.89,0,0,0-.64-.27H111.42a.92.92,0,0,0-.9.9V29.18Z" transform="translate(-49.34 0)"/><path class="cls-1" d="M133.57,28.53a5.12,5.12,0,0,1-1.7-1.7,4.36,4.36,0,0,1-.65-2.34V13a4.4,4.4,0,0,1,.65-2.35,5.09,5.09,0,0,1,1.7-1.69,4.28,4.28,0,0,1,2.34-.65h11.91a4.56,4.56,0,0,1,2.36.63,4.7,4.7,0,0,1,1.69,1.71A4.57,4.57,0,0,1,152.5,13v7.72H135.12v3.71a.92.92,0,0,0,.9.9H152.5v3.9H135.91A4.36,4.36,0,0,1,133.57,28.53ZM135.12,17h13.45v-4a.88.88,0,0,0-.25-.63.8.8,0,0,0-.61-.27H136a.92.92,0,0,0-.9.9Z" transform="translate(-49.34 0)"/><path class="cls-1" d="M155.35,29.18v-.69l8.19-9.95-8.19-9.6V8.26h4.55l6.17,7.25,6.2-7.25h4.51v.68l-8.15,9.6,8.19,10v.69h-4.55l-6.2-7.61-6.17,7.61Z" transform="translate(-49.34 0)"/><path class="cls-1" d="M182.64,28.53a4.91,4.91,0,0,1-1.69-1.7,4.44,4.44,0,0,1-.63-2.34V8.26h3.89V24.38a.92.92,0,0,0,.9.9H196.8a.92.92,0,0,0,.9-.9V8.26h3.9V24.49a4.44,4.44,0,0,1-.63,2.34,4.94,4.94,0,0,1-1.7,1.7,4.46,4.46,0,0,1-2.36.65H185A4.49,4.49,0,0,1,182.64,28.53Z" transform="translate(-49.34 0)"/><path class="cls-1" d="M206.9,28.53a5.09,5.09,0,0,1-1.69-1.7,4.28,4.28,0,0,1-.65-2.34V24h3.89v.43a.92.92,0,0,0,.91.9H221a.83.83,0,0,0,.62-.27.93.93,0,0,0,.25-.63V21.57a.93.93,0,0,0-.25-.63.79.79,0,0,0-.62-.27H209.25A4.48,4.48,0,0,1,206.9,20a4.88,4.88,0,0,1-1.69-1.69,4.39,4.39,0,0,1-.65-2.36V13a4.31,4.31,0,0,1,.65-2.35,5.06,5.06,0,0,1,1.69-1.69,4.31,4.31,0,0,1,2.35-.65h11.9a4.37,4.37,0,0,1,2.36.65,4.91,4.91,0,0,1,1.7,1.69,4.47,4.47,0,0,1,.63,2.35v.54h-3.93v-.44a.93.93,0,0,0-.25-.63.83.83,0,0,0-.62-.27H209.36a.92.92,0,0,0-.91.9v2.82a.92.92,0,0,0,.91.9h11.79a4.53,4.53,0,0,1,2.36.63,4.77,4.77,0,0,1,1.7,1.7,4.53,4.53,0,0,1,.63,2.36v3a4.44,4.44,0,0,1-.63,2.34,4.94,4.94,0,0,1-1.7,1.7,4.46,4.46,0,0,1-2.36.65h-11.9A4.4,4.4,0,0,1,206.9,28.53Z" transform="translate(-49.34 0)"/></svg>